<svg width="22" height="16" viewBox="0 0 22 16" fill="none" xmlns="http://www.w3.org/2000/svg">
<path d="M14.8145 15.7594C14.5148 16.0802 14.016 16.0802 13.7058 15.7594C13.4061 15.4494 13.4061 14.9334 13.7058 14.6242L19.3277 8.80931L0.7762 8.80931C0.343699 8.80859 6.59772e-07 8.45309 6.98879e-07 8.00575C7.37978e-07 7.55851 0.343699 7.19143 0.7762 7.19143L19.3277 7.19144L13.7058 1.38738C13.4061 1.06653 13.4061 0.549893 13.7058 0.240633C14.016 -0.0802104 14.5155 -0.0802104 14.8145 0.240633L21.7674 7.43202C22.0775 7.742 22.0775 8.25802 21.7674 8.56728L14.8145 15.7594Z" fill="#69C522"/>
</svg>
