<svg width="120" height="20" viewBox="0 0 120 20" fill="none" xmlns="http://www.w3.org/2000/svg">
<path d="M1.86834 16.1342V3.25643C1.86834 2.84262 1.86834 2.52812 1.84424 2.35846C1.82038 2.17693 1.76743 2.00074 1.68754 1.83706C1.54691 1.48118 1.19333 1.29497 0.622781 1.27428C0.220989 1.27428 0 1.09634 0 0.794257C0 0.492173 0.212952 0.380444 0.646892 0.380444H6.44074C7.71211 0.365525 8.97838 0.546857 10.1976 0.9184C11.2514 1.23358 12.2382 1.75017 13.1065 2.44122C13.8907 3.07851 14.5333 3.88138 14.991 4.79581C15.4449 5.72466 15.6764 6.75195 15.666 7.79178C15.666 9.72289 14.9896 11.2085 13.6369 12.2485C12.2842 13.2886 10.3703 13.81 7.89529 13.8127C7.49614 13.8127 7.09433 13.8003 6.68985 13.7755C6.2881 13.7466 5.94255 13.7051 5.64923 13.6555C5.46039 13.6183 5.2836 13.5893 5.11886 13.5727C4.95413 13.5562 4.83761 13.5479 4.76529 13.5479C4.47198 13.5479 4.32331 13.7176 4.32331 14.0527V16.7301C4.32331 17.1439 4.32332 17.4584 4.35144 17.6281C4.36814 17.7983 4.41156 17.9646 4.48001 18.1205C4.55862 18.3056 4.70209 18.4534 4.8818 18.5343C5.1118 18.6242 5.35225 18.6826 5.597 18.7082C5.99879 18.7082 6.19569 18.886 6.19569 19.1882C6.19569 19.4902 5.97871 19.6019 5.54477 19.6019H0.622781C0.220989 19.6019 0 19.4613 0 19.1882C0 18.915 0.196878 18.7247 0.594655 18.7082C0.835897 18.6851 1.07268 18.6266 1.2978 18.5343C1.47619 18.4514 1.61906 18.3043 1.69959 18.1205C1.78425 17.9783 1.83772 17.8187 1.85629 17.6529C1.85629 17.4832 1.8804 17.1771 1.8804 16.7301L1.86834 16.1342ZM6.18364 1.36531C5.68327 1.31823 5.17998 1.41417 4.72912 1.64257C4.58684 1.76306 4.47569 1.91793 4.40559 2.09337C4.33548 2.26881 4.3086 2.45939 4.32733 2.64812V11.1188C4.31788 11.3717 4.37767 11.6222 4.49987 11.8417C4.62208 12.0612 4.80177 12.2409 5.01842 12.3603C5.72417 12.6813 6.49443 12.8232 7.26443 12.7741C8.00824 12.7919 8.75115 12.7098 9.4743 12.53C10.0475 12.3703 10.5851 12.0977 11.0574 11.7271C12.3083 10.7671 12.9325 9.36704 12.9298 7.52694C12.9428 6.65187 12.7828 5.78319 12.4597 4.97374C12.1599 4.22886 11.6981 3.56486 11.1096 3.03298C10.4864 2.47829 9.76262 2.05634 8.98014 1.79154C8.07708 1.49191 7.13221 1.34789 6.18364 1.36531Z" fill="#00284F"/>
<path d="M18.6273 14.6369C18.4183 14.7072 18.3138 14.7859 18.3138 14.8769C18.3534 15.1755 18.4417 15.4651 18.575 15.7335C18.962 16.655 19.5806 17.4535 20.367 18.0467C21.0917 18.5897 21.966 18.8798 22.8622 18.8743C23.4925 18.8719 24.1139 18.7204 24.6783 18.4315C25.2805 18.1277 25.8196 17.7061 26.2654 17.1901C26.3202 17.1112 26.3916 17.0461 26.4743 16.9998C26.5302 16.9688 26.5919 16.9504 26.6551 16.946C26.8801 16.946 26.9926 17.0742 26.9926 17.3225C26.9833 17.4564 26.9389 17.5851 26.8641 17.6949C26.3244 18.4393 25.6018 19.0221 24.7707 19.3833C23.8929 19.7904 22.941 20.0005 21.9782 19.9998C21.1225 20.0088 20.2739 19.8399 19.4831 19.5033C18.7396 19.1884 18.0659 18.7213 17.503 18.1302C16.9401 17.539 16.4997 16.8362 16.2084 16.0646C15.6041 14.4294 15.587 12.6257 16.1603 10.9788C16.4144 10.2477 16.8063 9.57549 17.3134 9.00078C17.8111 8.44552 18.4124 7.99942 19.0813 7.68898C19.7793 7.36466 20.5375 7.2009 21.3032 7.20897C22.1427 7.19984 22.9712 7.40607 23.714 7.80901C24.4741 8.23173 25.1351 8.82076 25.6506 9.53458C26.0132 10.0272 26.3255 10.5569 26.5828 11.1153C26.6882 11.3411 26.7509 11.5855 26.7677 11.8354C26.7707 11.9086 26.7493 11.9806 26.7068 12.0394C26.6644 12.0982 26.6036 12.1402 26.5346 12.1582L18.6273 14.6369ZM18.1853 13.7803C18.2677 13.7694 18.347 13.7413 18.4183 13.6975L24.0837 11.9885C24.2885 11.9347 24.393 11.8354 24.393 11.6947C24.3844 11.554 24.3588 11.415 24.3167 11.2809C24.2644 11.0946 24.1961 10.8671 24.1077 10.6519C23.9006 10.0932 23.5721 9.59075 23.1475 9.18286C22.8425 8.8728 22.4811 8.62798 22.0839 8.46247C21.6867 8.29703 21.2616 8.21415 20.8331 8.21865C20.4148 8.20539 19.9998 8.29991 19.6258 8.49356C19.2519 8.68722 18.9307 8.97388 18.6915 9.32767C18.1144 10.2252 17.8327 11.2901 17.888 12.365C17.8818 12.7061 17.9074 13.047 17.9643 13.383C18.0286 13.6479 18.117 13.7803 18.1853 13.7803Z" fill="#00284F"/>
<path d="M31.332 7.80888L31.3561 9.76207C31.3561 9.88623 31.3561 9.94828 31.4084 9.94828C31.5078 9.84389 31.5941 9.72711 31.6655 9.60069C31.8458 9.26905 32.0674 8.96306 32.3245 8.69034C32.5886 8.40636 32.8839 8.15503 33.2044 7.9413C33.512 7.7337 33.8425 7.56425 34.1888 7.43646C34.5202 7.31461 34.8694 7.25162 35.2214 7.25025C35.5194 7.24918 35.816 7.29385 36.1013 7.38267C36.3655 7.46742 36.6191 7.58408 36.8567 7.73026C36.9773 7.78405 37.0375 7.85029 37.0375 7.9206C37.0387 8.00717 37.0118 8.09161 36.9611 8.16066C36.7884 8.57443 36.6357 8.98826 36.5071 9.37726C36.4086 9.66199 36.3255 9.9521 36.258 10.2463C36.2472 10.4061 36.1929 10.5595 36.1013 10.689C36.0651 10.7292 36.0208 10.7607 35.9716 10.7815C35.9223 10.8022 35.8692 10.8116 35.8161 10.809C35.6272 10.809 35.5227 10.6311 35.5067 10.2752C35.5041 10.1002 35.4676 9.92758 35.399 9.76745C35.3306 9.60732 35.2316 9.46302 35.1079 9.34299C34.9843 9.22295 34.8385 9.12975 34.6792 9.06883C34.52 9.00791 34.3505 8.98051 34.1808 8.98826C33.7917 8.98658 33.4082 9.08315 33.0637 9.26968C32.7148 9.46046 32.4094 9.72567 32.1678 10.0476C31.9072 10.394 31.7049 10.7828 31.5691 11.198C31.419 11.6494 31.3443 12.1237 31.3481 12.6008V17.2562C31.3091 17.6488 31.4058 18.043 31.6213 18.3693C31.9188 18.6257 32.2871 18.7792 32.674 18.808C33.0196 18.8618 33.1923 19.0066 33.1923 19.2218C33.1923 19.4369 33.0115 19.5943 32.6459 19.5943H27.981C27.5993 19.5943 27.4065 19.4618 27.4065 19.1804C27.4065 18.986 27.5913 18.8535 27.9529 18.7666C28.1776 18.7382 28.3971 18.6755 28.6038 18.5804C28.7734 18.5171 28.9158 18.3939 29.0056 18.2328C29.148 17.9149 29.2022 17.5625 29.1623 17.2149V11.4256C29.1872 11.0659 29.1378 10.7049 29.0177 10.3662C28.9571 10.2644 28.8758 10.1773 28.7794 10.1109C28.6829 10.0444 28.5737 10.0003 28.4592 9.98144L28.2502 9.92758C28.1553 9.91363 28.0684 9.86522 28.0051 9.79103C27.9459 9.72598 27.9129 9.64022 27.9127 9.55103C27.9154 9.47941 27.936 9.40973 27.9726 9.3488C28.0092 9.28788 28.0606 9.23778 28.1216 9.20344L30.8539 7.43646C30.8978 7.39912 30.9537 7.37991 31.0106 7.38267C31.2034 7.39511 31.3119 7.52753 31.332 7.80888Z" fill="#00284F"/>
<path d="M40.4762 0.48006V17.3263C40.473 17.5327 40.4864 17.7389 40.5164 17.9429C40.5361 18.0616 40.567 18.178 40.6088 18.2904C40.7097 18.4515 40.8475 18.5843 41.01 18.6774C41.1725 18.7705 41.3548 18.8209 41.5408 18.8243C41.9064 18.8781 42.0872 19.0229 42.0872 19.2381C42.0872 19.4533 41.8903 19.6105 41.4926 19.6105H37.2824C36.9008 19.6105 36.7119 19.4781 36.7119 19.1967C36.7119 18.9153 36.8927 18.8491 37.2583 18.7829C37.4371 18.735 37.6108 18.6684 37.7766 18.5843C37.9231 18.5159 38.0423 18.3975 38.114 18.2491C38.2573 17.9227 38.3115 17.5621 38.2706 17.2063V3.84021C38.2735 3.72775 38.2641 3.61532 38.2425 3.50502C38.2353 3.30052 38.1611 3.10455 38.032 2.94902C37.9029 2.79348 37.7265 2.68754 37.5315 2.64843L37.3547 2.59463C37.3086 2.59306 37.2633 2.582 37.2215 2.56211C37.1795 2.5422 37.142 2.51387 37.1109 2.47878C37.0798 2.44368 37.0559 2.40253 37.0405 2.35775C37.0251 2.31298 37.0185 2.26549 37.0213 2.21807C37.0293 2.14431 37.0553 2.07382 37.0966 2.01308C37.1381 1.95234 37.1936 1.9033 37.2583 1.87046L40.0102 0.107633C40.0267 0.0897909 40.0467 0.0757703 40.0689 0.0664953C40.091 0.0572209 40.1149 0.0529024 40.1387 0.0538355C40.3316 0.0538355 40.4441 0.19453 40.4762 0.48006Z" fill="#00284F"/>
<path d="M50.3168 12.7087L50.0315 10.7307C49.9741 10.0187 49.6918 9.3458 49.2279 8.81469C48.7289 8.39216 48.0927 8.18062 47.448 8.22297C46.8927 8.23279 46.3455 8.36095 45.8408 8.59952C45.2927 8.84934 44.8014 9.21439 44.3983 9.67131C44.1934 9.88236 44.0287 9.98994 43.9041 9.98994C43.8583 9.99689 43.8114 9.9927 43.7674 9.97775C43.7234 9.96274 43.6833 9.93728 43.6505 9.9035C43.6177 9.86972 43.5931 9.82857 43.5785 9.78322C43.5639 9.73781 43.5599 9.68958 43.5666 9.64235C43.5757 9.56485 43.6033 9.49092 43.647 9.42718C43.6992 9.34024 43.7514 9.25748 43.8037 9.18718C44.331 8.55555 44.9922 8.05721 45.7363 7.73051C46.4962 7.38698 47.3171 7.2094 48.1471 7.20915C49.1831 7.15036 50.2057 7.47305 51.032 8.11951C51.7809 8.80662 52.2454 9.76339 52.3297 10.7927L53.1494 16.913C53.1841 17.4312 53.3208 17.9366 53.5512 18.3986C53.6205 18.5366 53.7245 18.6529 53.8525 18.7352C53.9805 18.8175 54.1276 18.8627 54.2785 18.8662C54.419 18.8701 54.558 18.8343 54.6803 18.7627C54.7827 18.7097 54.8658 18.624 54.9173 18.5186L55.0459 18.2538C55.0459 18.2 55.0981 18.171 55.2026 18.171C55.3071 18.171 55.4357 18.2952 55.4357 18.5476C55.4299 18.7563 55.3731 18.9601 55.2706 19.1402C55.168 19.3203 55.0231 19.4709 54.849 19.5779C54.4213 19.8662 53.9174 20.0108 53.4066 19.9918C52.4021 19.9918 51.7097 19.6083 51.3293 18.8413C51.2449 18.6469 51.1726 18.5476 51.1204 18.5476L51.0199 18.6013C49.9592 19.4998 48.6244 19.9834 47.2511 19.9669C46.6134 19.9734 45.9796 19.8641 45.3787 19.6442C44.8371 19.4453 44.3358 19.1451 43.9001 18.7586C43.4853 18.3842 43.149 17.9266 42.9117 17.4137C42.6714 16.8972 42.5478 16.3313 42.5501 15.7584C42.5471 15.2174 42.6711 14.6836 42.9117 14.2026C43.1559 13.7204 43.497 13.2972 43.9122 12.9611C44.3656 12.5998 44.875 12.32 45.4189 12.1335C46.0258 11.9224 46.6628 11.8175 47.3033 11.8232C47.5717 11.8225 47.84 11.8363 48.1069 11.8645C48.3364 11.892 48.5625 11.9433 48.7819 12.0176C48.9989 12.0921 49.232 12.1831 49.4851 12.2949C49.7695 12.4168 50.0472 12.555 50.3168 12.7087ZM50.8632 16.4992L50.4614 13.8797C50.0959 13.4898 49.6677 13.1678 49.1958 12.928C48.7504 12.7204 48.2662 12.616 47.7774 12.6218C47.3792 12.6083 46.9823 12.6771 46.6104 12.8242C46.2384 12.9713 45.8988 13.1938 45.6118 13.4784C45.3259 13.7607 45.1013 14.102 44.9524 14.48C44.8035 14.8579 44.7339 15.264 44.7479 15.6716C44.7451 16.1175 44.8298 16.5595 44.997 16.9709C45.1572 17.3664 45.3921 17.7251 45.6881 18.0261C45.9809 18.3256 46.3257 18.5656 46.7046 18.7338C47.1009 18.9072 47.5277 18.9945 47.9582 18.9903C48.3415 18.993 48.7231 18.9386 49.0913 18.829C49.4228 18.7395 49.7396 18.6 50.0315 18.4151C50.2874 18.2521 50.5055 18.0331 50.6703 17.7737C50.8212 17.5452 50.9037 17.2762 50.9074 16.9999C50.9119 16.9199 50.9119 16.8398 50.9074 16.7599C50.8913 16.6771 50.8793 16.5985 50.8632 16.4992Z" fill="#00284F"/>
<path d="M61.7558 16.1057V3.21131C61.7946 2.68903 61.7243 2.16427 61.551 1.67194C61.4644 1.53429 61.345 1.4215 61.2044 1.34409C61.0638 1.26667 60.9069 1.22713 60.7475 1.22916C60.5741 1.23198 60.4033 1.1862 60.2532 1.09674C60.207 1.05315 60.1712 0.999016 60.1489 0.938655C60.1266 0.878294 60.1183 0.813392 60.1247 0.749141C60.1247 0.463608 60.3417 0.335327 60.7754 0.335327H65.1268C65.5607 0.335327 65.7782 0.480161 65.7782 0.749141C65.7849 0.811978 65.7764 0.875636 65.7534 0.934214C65.7303 0.992798 65.6928 1.04442 65.6455 1.08432C65.5019 1.16669 65.3431 1.2161 65.1795 1.22916C65.005 1.23987 64.8341 1.28043 64.6729 1.34916C64.5402 1.41319 64.4336 1.52299 64.3718 1.65952C64.2918 1.84539 64.2439 2.04428 64.2312 2.24713C64.2009 2.55786 64.1876 2.87008 64.1906 3.18235V7.62668C64.1597 7.89702 64.23 8.16942 64.3875 8.3881C64.6014 8.54729 64.865 8.61822 65.1268 8.58669H74.0108C74.2774 8.61534 74.5452 8.54491 74.7658 8.3881C74.9373 8.15066 75.0124 7.85379 74.9748 7.56043V3.18235C75.0142 2.66512 74.9427 2.14535 74.7658 1.65952C74.6755 1.52803 74.5543 1.42153 74.4143 1.34937C74.2744 1.27721 74.1192 1.24162 73.9623 1.24571C73.5605 1.24571 73.34 1.06777 73.34 0.765685C73.34 0.463606 73.5569 0.351877 73.9908 0.351877H78.4343C78.8645 0.351877 79.0814 0.49671 79.0814 0.765685C79.0814 1.03466 78.8845 1.22916 78.4827 1.24571C78.2937 1.23286 78.1052 1.2799 77.9428 1.3805C77.7804 1.4811 77.652 1.63045 77.5744 1.8085C77.5059 1.96935 77.4665 2.14189 77.4581 2.31748C77.4581 2.49541 77.4581 2.7975 77.4581 3.22786V16.685C77.4581 17.1485 77.4581 17.4588 77.4823 17.6078C77.5041 17.7759 77.5393 17.942 77.5865 18.1044C77.6477 18.2755 77.7623 18.4209 77.9119 18.5182C78.0889 18.6026 78.2773 18.6571 78.4706 18.6795C78.8724 18.6795 79.0693 18.8575 79.0693 19.1596C79.0693 19.4617 78.8602 19.5734 78.4464 19.5734H73.9665C73.5363 19.5734 73.3194 19.4286 73.3194 19.1596C73.3194 18.8906 73.5248 18.6961 73.9423 18.6795C74.1011 18.6787 74.2574 18.6378 74.3974 18.5607C74.5373 18.4835 74.6573 18.3723 74.7458 18.2368C74.9318 17.7475 75.007 17.2212 74.967 16.6974V10.7841C75.0021 10.5062 74.9361 10.2247 74.7822 9.9937C74.5489 9.84633 74.2744 9.78503 74.0029 9.81987H65.1268C64.8668 9.79053 64.6051 9.85646 64.3875 10.0061C64.23 10.2308 64.1609 10.5089 64.1948 10.7841V17.2312C64.1948 17.3774 64.1948 17.4975 64.1948 17.5912C64.1948 17.6905 64.1948 17.7733 64.2191 17.8478C64.2294 17.9212 64.2512 17.9925 64.2833 18.0588C64.3427 18.2385 64.4566 18.3934 64.6087 18.5002C64.7614 18.6069 64.9432 18.6598 65.1268 18.6506C65.2995 18.6629 65.4679 18.7122 65.6213 18.7954C65.6673 18.8362 65.7037 18.8881 65.7261 18.9466C65.7485 19.005 65.7564 19.0682 65.7497 19.1306C65.7497 19.4161 65.5328 19.5444 65.0989 19.5444H60.7075C60.3055 19.5444 60.0805 19.3996 60.0805 19.1306C60.0731 19.067 60.0801 19.0025 60.101 18.9422C60.1219 18.8819 60.1562 18.8274 60.201 18.783C60.3441 18.6911 60.5105 18.645 60.6791 18.6506C60.8415 18.6561 61.0032 18.6215 61.1499 18.5495C61.2965 18.4775 61.4244 18.3702 61.5232 18.2368C61.7068 17.8051 61.7831 17.3327 61.7437 16.8629V16.1098L61.7558 16.1057Z" fill="#00284F"/>
<path d="M82.0463 14.5831C81.8414 14.6535 81.7372 14.7362 81.7372 14.8231C81.7778 15.1194 81.8675 15.4063 82.002 15.6714C82.3904 16.5921 83.0091 17.3902 83.7944 17.9847C84.5192 18.5277 85.393 18.8177 86.2892 18.8123C86.9212 18.8095 87.5435 18.658 88.1095 18.3695C88.7106 18.0655 89.2481 17.6438 89.6929 17.128C89.7486 17.05 89.8195 16.9852 89.9013 16.9377C89.9577 16.9067 90.0189 16.8884 90.0825 16.8839C90.3073 16.8839 90.42 17.0122 90.42 17.2605C90.4103 17.3943 90.3661 17.523 90.2916 17.6329C89.7522 18.3782 89.0293 18.9611 88.198 19.3212C87.3205 19.7288 86.3686 19.939 85.4057 19.9378C84.5513 19.9471 83.7036 19.7782 82.9146 19.4413C82.1699 19.1281 81.4954 18.6615 80.9325 18.0702C80.369 17.4788 79.929 16.7752 79.64 16.0025C79.031 14.3684 79.0128 12.5637 79.5873 10.9167C79.8448 10.1862 80.2375 9.51425 80.7447 8.93872C81.2409 8.38359 81.8408 7.93742 82.5086 7.62692C83.2073 7.30492 83.9647 7.14116 84.7307 7.14691C85.5699 7.13728 86.3989 7.34351 87.1412 7.74696C87.9023 8.16861 88.5634 8.75777 89.0778 9.47253C89.4408 9.96561 89.7547 10.4952 90.014 11.0533C90.1164 11.2799 90.1782 11.5239 90.1946 11.7733C90.1988 11.8467 90.1776 11.9191 90.1352 11.9781C90.0922 12.0371 90.031 12.0788 89.9619 12.0961L82.0463 14.5831ZM81.6003 13.7265C81.6839 13.7159 81.7651 13.6877 81.8378 13.6437L87.5029 11.9471C87.712 11.8933 87.8162 11.794 87.8162 11.6533C87.8059 11.5125 87.7786 11.3736 87.7356 11.2395C87.6835 11.0533 87.6156 10.8257 87.5308 10.6105C87.3242 10.0508 86.9939 9.54796 86.5667 9.14151C86.2619 8.83233 85.9014 8.58801 85.5045 8.42256C85.1082 8.25712 84.684 8.1738 84.2562 8.1773C83.8375 8.16448 83.4218 8.25912 83.0473 8.45271C82.6728 8.6463 82.3511 8.93278 82.1105 9.28632C81.5354 10.1847 81.2537 11.2489 81.307 12.3237C81.3021 12.6649 81.3288 13.0059 81.3876 13.3417C81.4518 13.6024 81.5203 13.7265 81.6003 13.7265Z" fill="#00284F"/>
<path d="M93.9711 0.426428V17.2561C93.9662 17.4625 93.9796 17.6689 94.0117 17.8727C94.0299 17.9912 94.0595 18.1076 94.1001 18.2203C94.2025 18.3808 94.3413 18.5136 94.5043 18.6072C94.6666 18.7008 94.8496 18.7526 95.0356 18.7583C95.4016 18.812 95.5821 18.9527 95.5821 19.1721C95.5821 19.3914 95.3816 19.5486 94.9835 19.5486H90.7775C90.3958 19.5486 90.2068 19.4121 90.2068 19.1348C90.2068 18.8576 90.3879 18.7913 90.749 18.721C90.9296 18.6724 91.1047 18.6045 91.2713 18.5183C91.4167 18.4474 91.5349 18.3297 91.6088 18.183C91.7524 17.8566 91.8063 17.4961 91.7657 17.1403V3.78657C91.7663 3.67419 91.7572 3.56199 91.7378 3.45138C91.73 3.2471 91.6554 3.05151 91.5264 2.89612C91.3973 2.74073 91.221 2.63459 91.0265 2.5948L90.8496 2.541C90.8036 2.53997 90.7587 2.52942 90.7169 2.50996C90.6751 2.49052 90.6376 2.46257 90.6061 2.4278C90.5752 2.39303 90.5509 2.35216 90.5358 2.30762C90.52 2.26307 90.5134 2.21578 90.5164 2.16857C90.5237 2.0946 90.5491 2.02369 90.5897 1.96228C90.6303 1.90086 90.6854 1.85087 90.749 1.81683L93.5052 0.0539941C93.5215 0.0359335 93.5415 0.021763 93.5639 0.0124716C93.5857 0.00318024 93.61 -0.00100378 93.6336 0.000203015C93.8226 0.000203015 93.9353 0.140898 93.9711 0.426428Z" fill="#00284F"/>
<path d="M99.8422 13.6021L98.5442 13.1469C96.9372 12.5951 96.1403 11.6765 96.1537 10.3909C96.1543 9.96002 96.2524 9.53512 96.4391 9.14949C96.6263 8.76125 96.8923 8.41847 97.2183 8.14394C97.568 7.8569 97.9637 7.63553 98.3879 7.4901C98.8654 7.32491 99.3665 7.24372 99.87 7.2501C100.058 7.2501 100.223 7.2501 100.364 7.2501C100.507 7.25829 100.65 7.27631 100.79 7.30389C100.958 7.32409 101.124 7.35449 101.289 7.3949L102.004 7.61014L102.353 7.71772C102.408 7.73323 102.465 7.74155 102.522 7.74256C102.647 7.74256 102.767 7.62665 102.888 7.3949C102.925 7.30095 102.979 7.21426 103.045 7.13838C103.1 7.10805 103.163 7.0951 103.225 7.1011C103.312 7.09541 103.398 7.11862 103.47 7.16734C103.574 7.27105 103.658 7.39296 103.719 7.52738L105.122 10.1509L105.214 10.3371C105.235 10.3795 105.247 10.4261 105.25 10.4737C105.25 10.6516 105.158 10.7385 104.965 10.7385C104.85 10.7409 104.737 10.7093 104.64 10.6475C104.508 10.5422 104.39 10.4198 104.29 10.2833C103.743 9.61187 103.072 9.05786 102.317 8.65291C101.649 8.26879 100.9 8.05718 100.135 8.03635C99.6264 8.02184 99.1277 8.18197 98.7169 8.49153C98.5381 8.61588 98.3915 8.78351 98.2897 8.97967C98.1885 9.17589 98.1352 9.39475 98.1346 9.61712C98.1309 9.82072 98.1752 10.0223 98.263 10.2047C98.3685 10.4041 98.52 10.5734 98.7048 10.6972C98.9708 10.8824 99.2532 11.0404 99.5489 11.1689C99.9021 11.3261 100.352 11.5082 100.863 11.7027L102.393 12.2655C103.816 12.7842 104.824 13.3358 105.419 13.9208C105.716 14.211 105.949 14.563 106.104 14.9532C106.258 15.3435 106.33 15.7631 106.315 16.1843C106.32 16.6997 106.219 17.2103 106.017 17.6823C105.824 18.1382 105.536 18.545 105.174 18.874C104.796 19.2122 104.36 19.4747 103.888 19.6478C103.372 19.8374 102.828 19.9327 102.281 19.9293C101.418 19.9052 100.562 19.7661 99.7337 19.5155L99.2798 19.3955C99.2477 19.3975 99.2162 19.3871 99.1914 19.3665C99.1707 19.3522 99.1471 19.3437 99.1229 19.3417C99.0023 19.3417 98.866 19.4658 98.7211 19.7141C98.6824 19.8021 98.6242 19.8799 98.5521 19.9417C98.4915 19.9739 98.4236 19.9882 98.3551 19.983C98.2691 19.9888 98.183 19.9656 98.1103 19.9169C98.0049 19.8185 97.9128 19.7057 97.837 19.5817L95.7598 16.4243C95.6326 16.2954 95.5507 16.1265 95.5265 15.9443C95.5198 15.897 95.5241 15.8488 95.5386 15.8034C95.5532 15.7581 95.578 15.7169 95.6107 15.6831C95.6435 15.6493 95.6835 15.6239 95.7277 15.6089C95.7713 15.5939 95.8186 15.5897 95.864 15.5967C96.0167 15.5967 96.21 15.7457 96.4348 16.0518C96.7021 16.3528 96.9935 16.6297 97.3068 16.8795C97.7649 17.274 98.2533 17.6658 98.7732 18.0547C99.2114 18.3976 99.7034 18.6607 100.228 18.8327C100.738 19.0068 101.273 19.0975 101.811 19.1017C102.43 19.1348 103.037 18.9181 103.502 18.4975C103.706 18.2921 103.864 18.0446 103.967 17.7713C104.071 17.4981 104.116 17.2054 104.101 16.9126C104.115 16.6357 104.074 16.3588 103.98 16.0991C103.886 15.8393 103.741 15.6021 103.555 15.4022C103.422 15.2605 103.274 15.1354 103.113 15.0298C102.905 14.8949 102.688 14.7732 102.466 14.6656C102.205 14.5414 101.892 14.409 101.53 14.2518L99.8422 13.6021Z" fill="#00284F"/>
<path d="M114.861 12.6545L114.576 10.6764C114.516 9.96525 114.234 9.29321 113.773 8.76047C113.267 8.34157 112.627 8.13597 111.98 8.18532C111.425 8.19439 110.877 8.32262 110.373 8.56187C109.825 8.81207 109.334 9.17711 108.931 9.63367C108.722 9.84471 108.557 9.9523 108.437 9.9523C108.39 9.95924 108.344 9.95505 108.3 9.94004C108.256 9.92503 108.216 9.89963 108.183 9.86585C108.15 9.83208 108.126 9.79086 108.111 9.74551C108.097 9.70016 108.092 9.65193 108.099 9.60464C108.108 9.52789 108.134 9.45434 108.175 9.38947C108.227 9.30259 108.28 9.22396 108.332 9.14947C108.862 8.51865 109.524 8.0205 110.269 7.69286C111.035 7.34615 111.863 7.1685 112.699 7.17144C113.734 7.11296 114.755 7.43566 115.58 8.08186C116.332 8.76722 116.798 9.72468 116.882 10.7551L117.714 16.8588C117.749 17.3755 117.886 17.8795 118.116 18.3402C118.185 18.4791 118.288 18.5962 118.416 18.6792C118.545 18.7622 118.692 18.8081 118.843 18.812C118.984 18.8144 119.123 18.7772 119.245 18.7044C119.347 18.6526 119.429 18.5665 119.478 18.4602L119.61 18.1954C119.61 18.1416 119.663 18.1126 119.763 18.1126C119.864 18.1126 120 18.2409 120 18.4892C119.995 18.6979 119.938 18.9017 119.835 19.0818C119.733 19.2619 119.587 19.4125 119.413 19.5196C118.986 19.8073 118.482 19.9519 117.971 19.9334C116.967 19.9334 116.274 19.5499 115.894 18.783C115.806 18.5885 115.737 18.4892 115.685 18.4892L115.58 18.543C114.522 19.4421 113.188 19.9259 111.815 19.9086C111.178 19.9153 110.544 19.8061 109.943 19.5858C109.402 19.387 108.9 19.0867 108.464 18.7002C108.049 18.3266 107.712 17.8688 107.476 17.3554C107.232 16.8399 107.107 16.2735 107.111 15.7001C107.107 15.1585 107.232 14.6242 107.476 14.1442C107.72 13.6618 108.061 13.2387 108.477 12.9027C108.929 12.5398 109.439 12.2598 109.984 12.0751C110.59 11.8638 111.227 11.7589 111.868 11.7647C112.136 11.7641 112.404 11.7779 112.672 11.8062C112.901 11.8336 113.127 11.8849 113.347 11.9593C113.564 12.0337 113.796 12.1248 114.05 12.2365C114.327 12.3605 114.598 12.5 114.861 12.6545ZM115.407 16.4533L115.006 13.8338C114.64 13.4438 114.212 13.1218 113.74 12.8821C113.293 12.674 112.808 12.5695 112.318 12.5758C111.92 12.5633 111.523 12.6325 111.151 12.7796C110.779 12.9267 110.44 13.1486 110.152 13.4324C109.867 13.7151 109.643 14.0566 109.495 14.4345C109.347 14.8124 109.278 15.2183 109.292 15.6257C109.289 16.0628 109.37 16.4963 109.531 16.9007C109.693 17.305 109.931 17.672 110.233 17.9802C110.523 18.2818 110.869 18.5222 111.249 18.6878C111.645 18.8612 112.072 18.9486 112.503 18.9444C112.886 18.9465 113.267 18.8921 113.636 18.783C113.967 18.6916 114.283 18.5523 114.576 18.3692C114.832 18.2046 115.05 17.9842 115.215 17.7236C115.364 17.4949 115.446 17.2257 115.448 16.9498C115.452 16.8699 115.452 16.7898 115.448 16.7098C115.436 16.627 115.424 16.5443 115.407 16.4533Z" fill="#00284F"/>
</svg>
