<svg width="50" height="36" viewBox="0 0 50 36" fill="none" xmlns="http://www.w3.org/2000/svg">
<path d="M49.5919 8.41341L42.4918 0.392077C42.3369 0.21806 42.1303 0.0938513 41.8999 0.0361546C41.6695 -0.0215421 41.4262 -0.00996403 41.2028 0.0693169C40.9794 0.148598 40.7866 0.291793 40.6502 0.479667C40.5138 0.667541 40.4405 0.891088 40.4399 1.12029V4.12257H27.1093C27.0593 4.12257 27.0112 4.14157 26.9756 4.17544C26.94 4.20932 26.9197 4.25535 26.9191 4.30354C26.9192 4.34753 26.9357 4.39001 26.9656 4.42324C26.9956 4.45647 27.0369 4.47821 27.0822 4.4845C32.8596 5.28903 37.5364 9.19177 38.961 14.5531H40.4399V17.5532C40.4392 17.783 40.5119 18.0074 40.6481 18.1961C40.7843 18.3848 40.9774 18.5286 41.2013 18.6081C41.4253 18.6876 41.6692 18.6989 41.9 18.6404C42.1308 18.582 42.3374 18.4567 42.4918 18.2815L49.5919 10.2623C49.8201 10.0044 49.9454 9.67664 49.9454 9.33785C49.9454 8.99907 49.8201 8.67135 49.5919 8.41341Z" fill="#00284F"/>
<path d="M11.125 21.7592C11.0989 21.6678 11.0425 21.5871 10.9645 21.5292C10.8864 21.4714 10.7909 21.4396 10.6924 21.4387H9.56002V18.443C9.56026 18.2134 9.48727 17.9893 9.35089 17.801C9.21452 17.6126 9.02135 17.4692 8.79751 17.39C8.57368 17.3108 8.32997 17.2997 8.09936 17.3581C7.86875 17.4166 7.66236 17.5419 7.50811 17.717L0.407987 25.7361C0.179834 25.9941 0.0545349 26.3218 0.0545349 26.6606C0.0545349 26.9993 0.179834 27.3271 0.407987 27.585L7.50811 35.6042C7.66236 35.7793 7.86875 35.9045 8.09936 35.963C8.32997 36.0215 8.57368 36.0104 8.79751 35.9312C9.02135 35.852 9.21452 35.7085 9.35089 35.5202C9.48727 35.3318 9.56026 35.1077 9.56002 34.8781V31.8759H22.8883C22.939 31.8759 22.9876 31.8566 23.0237 31.8224C23.0597 31.7881 23.0802 31.7415 23.0808 31.6927C23.0807 31.6484 23.0638 31.6056 23.0334 31.5724C23.003 31.5391 22.9611 31.5175 22.9155 31.5117C17.2399 30.7137 12.6447 26.9593 11.125 21.7592Z" fill="#00284F"/>
<path d="M24.9951 7.16614C23.5185 7.16585 22.0564 7.44557 20.6921 7.98935C19.3279 8.53313 18.0882 9.33031 17.044 10.3353C15.9998 11.3404 15.1715 12.5336 14.6064 13.8469C14.0413 15.1601 13.7504 16.5677 13.7504 17.9892C13.7501 19.1619 13.9482 20.3269 14.337 21.4384C15.0874 23.5875 16.5198 25.4555 18.4321 26.7789C20.3443 28.1023 22.64 28.8142 24.9951 28.8143C27.977 28.8138 30.8365 27.673 32.9448 25.643C35.0531 23.6129 36.2375 20.8598 36.2375 17.9892C36.238 16.821 36.0414 15.6605 35.6555 14.553C34.9069 12.4015 33.475 10.5309 31.5621 9.20539C29.6492 7.87989 27.352 7.16655 24.9951 7.16614ZM24.2069 16.0901H25.6428C26.8374 16.0901 27.983 16.5466 28.8281 17.3594C29.6732 18.1721 30.1486 19.2746 30.1498 20.4245C30.1482 21.4166 29.7935 22.3782 29.1449 23.149C28.4962 23.9199 27.5927 24.4535 26.585 24.6609V25.2517C26.585 25.6565 26.4179 26.0447 26.1206 26.3309C25.8233 26.6171 25.4201 26.778 24.9996 26.778C24.5792 26.778 24.1759 26.6171 23.8786 26.3309C23.5813 26.0447 23.4143 25.6565 23.4143 25.2517V24.7655H21.4371C21.0166 24.7655 20.6134 24.6047 20.3161 24.3185C20.0188 24.0323 19.8517 23.6441 19.8517 23.2393C19.8517 22.8345 20.0188 22.4464 20.3161 22.1601C20.6134 21.8739 21.0166 21.7131 21.4371 21.7131H25.6496C26.002 21.7125 26.3398 21.5775 26.589 21.3376C26.8382 21.0977 26.9785 20.7725 26.9791 20.4333C26.9785 20.0938 26.8383 19.7684 26.5891 19.5282C26.34 19.2879 26.0022 19.1524 25.6496 19.1513H24.2137C23.0564 19.1518 21.9463 18.7101 21.1271 17.9231C20.3079 17.1362 19.8468 16.0683 19.845 14.9542C19.8423 13.9717 20.1972 13.0194 20.848 12.2627C21.4988 11.5059 22.4044 10.9925 23.4075 10.8116V10.6197C23.4075 10.215 23.5745 9.82675 23.8718 9.54053C24.1691 9.25431 24.5724 9.09352 24.9928 9.09352C25.4133 9.09352 25.8165 9.25431 26.1138 9.54053C26.4112 9.82675 26.5782 10.215 26.5782 10.6197V10.7375H28.5644C28.9849 10.7375 29.3881 10.8983 29.6854 11.1845C29.9827 11.4707 30.1498 11.8589 30.1498 12.2637C30.1498 12.6685 29.9827 13.0567 29.6854 13.3429C29.3881 13.6291 28.9849 13.7899 28.5644 13.7899H24.2137C23.898 13.7905 23.5953 13.9115 23.372 14.1264C23.1488 14.3414 23.0231 14.6327 23.0225 14.9367C23.0213 15.2407 23.1452 15.5328 23.3672 15.749C23.5892 15.9651 23.8912 16.0878 24.2069 16.0901Z" fill="#00284F"/>
</svg>
