<svg width="35" height="36" viewBox="0 0 35 36" fill="none" xmlns="http://www.w3.org/2000/svg">
<path d="M20.7443 0.792688C19.6878 0.271931 18.5232 0.000854492 17.3425 0.000854492C16.1617 0.000854492 14.9971 0.271931 13.9407 0.792688L4.42685 5.48042C3.15705 6.10517 2.08881 7.06722 1.34214 8.25849C0.595465 9.44975 0.199938 10.823 0.199997 12.2241V23.7849C0.20057 25.1841 0.595679 26.5555 1.34104 27.7454C2.0864 28.9353 3.15257 29.8967 4.42007 30.5218L13.9339 35.2096C14.9906 35.7293 16.1551 35.9998 17.3357 35.9998C18.5163 35.9998 19.6807 35.7293 20.7375 35.2096L20.8076 35.1761C19.8497 34.2776 19.0869 33.196 18.5658 31.9972C18.0447 30.7983 17.7762 29.5072 17.7765 28.2025C17.7801 25.6474 18.8096 23.198 20.6393 21.3915C22.4689 19.585 24.9494 18.5688 27.5366 18.5659C28.8292 18.5641 30.1091 18.8167 31.3017 19.3088C32.4943 19.8009 33.5757 20.5227 34.4827 21.4321V12.2174C34.4827 10.8163 34.0872 9.44305 33.3405 8.25178C32.5939 7.06052 31.5256 6.09848 30.2558 5.47373L27.279 4.00937L11.348 10.1681C10.8879 10.3466 10.4928 10.6577 10.2142 11.0611C9.93559 11.4644 9.78643 11.9412 9.78613 12.4294V20.8272L7.13249 18.2333L5.2564 19.0458V10.9874C5.25731 10.2807 5.47332 9.59054 5.87639 9.00659C6.27946 8.42263 6.85098 7.97182 7.51675 7.71267L22.6995 1.75255" fill="#00284F"/>
<path d="M34.2824 25.4968C33.7372 24.1731 32.8051 23.0398 31.605 22.2415C30.405 21.4432 28.9913 21.016 27.5443 21.0144C25.6161 21.0162 23.7674 21.7733 22.4037 23.1195C21.0401 24.4658 20.2729 26.2913 20.2705 28.1956C20.2709 29.3215 20.5393 30.4316 21.054 31.4363C21.5688 32.441 22.3155 33.3121 23.2338 33.9793C24.4814 34.8904 25.9927 35.3811 27.5443 35.3789C29.4727 35.3766 31.3214 34.619 32.685 33.2724C34.0486 31.9257 34.8157 30.1 34.8181 28.1956C34.8182 27.2702 34.6363 26.3536 34.2824 25.4968ZM26.3011 23.8315C26.3011 23.5059 26.4321 23.1936 26.6652 22.9634C26.8984 22.7331 27.2146 22.6038 27.5443 22.6038C27.874 22.6038 28.1902 22.7331 28.4234 22.9634C28.6565 23.1936 28.7875 23.5059 28.7875 23.8315V26.9567H30.3697C30.6993 26.9573 31.0151 27.0868 31.2482 27.3169C31.4812 27.547 31.6123 27.859 31.6129 28.1844C31.6129 28.51 31.482 28.8223 31.2488 29.0525C31.0157 29.2828 30.6995 29.4121 30.3697 29.4121H27.5443C27.2146 29.4121 26.8984 29.2828 26.6652 29.0525C26.4321 28.8223 26.3011 28.51 26.3011 28.1844V23.8315Z" fill="#00284F"/>
</svg>
