<svg width="12" height="17" viewBox="0 0 12 17" fill="none" xmlns="http://www.w3.org/2000/svg">
<path d="M1.09836 14.8563C0.691363 15.2188 0.691363 15.809 1.09836 16.1714L1.7238 16.7284C1.92051 16.9036 2.18241 17 2.46215 17C2.74189 17 3.00417 16.9036 3.20049 16.7284L11.6955 9.16341C11.893 8.98789 12.0009 8.75362 12.0001 8.50311C12.0009 8.25364 11.893 8.01937 11.6955 7.84384L3.19273 0.271585C2.99641 0.0964024 2.73413 0 2.45478 0C2.17504 0 1.91275 0.0964024 1.71643 0.271585L1.0906 0.828577C0.893894 1.00376 0.785645 1.23699 0.785645 1.48646C0.785645 1.73559 0.893894 1.96917 1.0906 2.14366L8.23156 8.50346L1.09836 14.8563Z" fill="#00284F" fill-opacity="0.5"/>
<path d="M1.09836 14.8563C0.691363 15.2188 0.691363 15.809 1.09836 16.1714L1.7238 16.7284C1.92051 16.9036 2.18241 17 2.46215 17C2.74189 17 3.00417 16.9036 3.20049 16.7284L11.6955 9.16341C11.893 8.98789 12.0009 8.75362 12.0001 8.50311C12.0009 8.25364 11.893 8.01937 11.6955 7.84384L3.19273 0.271585C2.99641 0.0964024 2.73413 0 2.45478 0C2.17504 0 1.91275 0.0964024 1.71643 0.271585L1.0906 0.828577C0.893894 1.00376 0.785645 1.23699 0.785645 1.48646C0.785645 1.73559 0.893894 1.96917 1.0906 2.14366L8.23156 8.50346L1.09836 14.8563Z" stroke="#00284F"/>
</svg>
