<svg width="12" height="20" viewBox="0 0 12 20" fill="none" xmlns="http://www.w3.org/2000/svg">
<path d="M11.6654 17.478C12.1009 17.9045 12.1009 18.5988 11.6654 19.0252L10.9961 19.6805C10.7856 19.8866 10.5054 20 10.2061 20C9.90673 20 9.62607 19.8866 9.416 19.6805L0.325912 10.7805C0.114593 10.574 -0.000824928 10.2984 5.72205e-06 10.0037C-0.000824928 9.71016 0.114593 9.43455 0.325912 9.22805L9.4243 0.319512C9.63438 0.113415 9.91503 0 10.214 0C10.5133 0 10.7939 0.113415 11.004 0.319512L11.6737 0.974797C11.8842 1.18089 12 1.45528 12 1.74878C12 2.04187 11.8842 2.31667 11.6737 2.52195L4.03253 10.0041L11.6654 17.478Z" fill="#00284F" fill-opacity="0.17"/>
<path d="M11.6654 17.478C12.1009 17.9045 12.1009 18.5988 11.6654 19.0252L10.9961 19.6805C10.7856 19.8866 10.5054 20 10.2061 20C9.90673 20 9.62607 19.8866 9.416 19.6805L0.325912 10.7805C0.114593 10.574 -0.000824928 10.2984 5.72205e-06 10.0037C-0.000824928 9.71016 0.114593 9.43455 0.325912 9.22805L9.4243 0.319512C9.63438 0.113415 9.91503 0 10.214 0C10.5133 0 10.7939 0.113415 11.004 0.319512L11.6737 0.974797C11.8842 1.18089 12 1.45528 12 1.74878C12 2.04187 11.8842 2.31667 11.6737 2.52195L4.03253 10.0041L11.6654 17.478Z" stroke="#00284F"/>
</svg>
